<svg width="72" height="72" viewBox="0 0 72 72" fill="none" xmlns="http://www.w3.org/2000/svg">
<g clip-path="url(#clip0_8_146)">
<path d="M61.171 65.9347C60.0065 65.9347 58.9124 65.482 58.0904 64.66L36.863 43.4343L38.7247 42.5971C39.5115 42.2433 40.2138 41.7596 40.8122 41.1598C41.4142 40.5578 41.8976 39.8557 42.2503 39.0715L43.0875 37.21L64.3149 58.4357C65.1373 59.2582 65.5903 60.3528 65.5903 61.518C65.5903 62.6821 65.1375 63.776 64.3149 64.5985L64.2438 64.6679C63.4226 65.4848 62.3317 65.9347 61.171 65.9347Z" fill="#EB7830"/>
<path d="M35.8303 43.2214C33.9509 43.2214 32.1836 42.489 30.8536 41.1592C28.7201 39.0257 27.9542 32.3575 27.7239 29.5895L27.5861 27.931L29.2444 28.069C32.0119 28.2995 38.679 29.0655 40.8139 31.2003C42.3323 32.7185 43.0681 34.8152 42.8325 36.9528C42.657 38.557 41.9592 40.0115 40.815 41.1582C39.6708 42.3024 38.2167 43.001 36.6087 43.1792C36.3332 43.2077 36.0751 43.2214 35.8303 43.2214Z" fill="#F5C525"/>
<path d="M35.7406 70.0726C16.8099 70.0726 1.40851 54.6715 1.40851 35.7406C1.40851 16.8189 16.8095 1.41766 35.7399 1.40851C54.6345 1.40851 70.0359 16.7803 70.0726 35.6746C70.0763 37.598 69.9188 39.5314 69.6045 41.4209C69.389 42.7079 68.2902 43.6405 66.9916 43.6405C66.6312 43.6405 66.2775 43.5665 65.9407 43.4206C63.4077 42.3209 60.7093 41.7637 57.9189 41.7637H57.7904C55.2303 41.7781 52.7228 42.2772 50.3451 43.2475L49.4787 43.601L42.8526 36.9748L42.8697 36.3684C42.9246 34.4161 42.1941 32.5803 40.8133 31.1996C38.6407 29.027 31.2306 28.1321 27.616 27.9625C27.8541 32.9972 28.968 39.2736 30.8538 41.1584C32.1831 42.4892 33.95 43.2216 35.8302 43.2216C35.8857 43.2216 35.9399 43.2186 35.9953 43.2162L36.617 43.1871L42.4228 48.9952L41.6996 49.971C39.1141 53.4584 37.7433 57.5865 37.7354 61.9097C37.7336 63.5675 37.9318 65.2149 38.3245 66.8056C38.5209 67.5955 38.344 68.42 37.8385 69.065C37.339 69.7049 36.5866 70.073 35.7758 70.073H35.7406V70.0726ZM27.4252 54.0477C26.3827 54.0477 25.3623 54.4702 24.6253 55.2074C23.8865 55.9435 23.4638 56.9641 23.4638 58.0091C23.4638 59.0526 23.8872 60.0743 24.6253 60.8127C25.3619 61.5467 26.3831 61.9687 27.4252 61.9687C28.4673 61.9687 29.4883 61.5463 30.226 60.8099C30.9633 60.0725 31.3866 59.0513 31.3866 58.0091C31.3866 56.9652 30.9638 55.9451 30.2268 55.2107C29.487 54.4709 28.4664 54.0477 27.4252 54.0477ZM13.6712 40.6089C13.1654 40.6089 12.6687 40.7052 12.1953 40.895C10.1706 41.71 9.18323 44.0227 9.99593 46.0495C10.6033 47.5575 12.0476 48.5332 13.6747 48.5332C14.1832 48.5332 14.6788 48.4373 15.148 48.2482C16.1308 47.8529 16.9004 47.0996 17.3164 46.1258C17.7312 45.1546 17.7425 44.078 17.3483 43.094C16.7421 41.5848 15.2987 40.6089 13.6712 40.6089ZM59.0776 27.2579C58.0365 27.2579 57.015 27.6815 56.275 28.4203C55.5386 29.1553 55.1162 30.1756 55.1162 31.2193C55.1162 32.2653 55.5382 33.2859 56.2742 34.0192C57.0129 34.758 58.0341 35.1807 59.0776 35.1807C60.1213 35.1807 61.1416 34.7585 61.8766 34.0219C62.6159 33.284 63.039 32.2632 63.039 31.2193C63.039 30.1768 62.6157 29.1555 61.8775 28.4176C61.1386 27.6813 60.1174 27.2579 59.0776 27.2579ZM10.7731 23.6847C10.3319 24.6231 10.275 25.6795 10.6134 26.6595C10.9579 27.6604 11.6705 28.4659 12.6207 28.9286C13.1672 29.1955 13.7508 29.3303 14.3561 29.3303C15.8843 29.3303 17.2497 28.4771 17.9194 27.1039C18.8756 25.1397 18.0566 22.7636 16.0935 21.8079C15.548 21.5422 14.9647 21.4077 14.3596 21.4077C12.8305 21.4077 11.4657 22.2602 10.7972 23.6324L10.7731 23.6847ZM48.0684 11.4792C46.6765 11.4792 45.4122 12.1863 44.6863 13.3702C43.5466 15.2317 44.1343 17.6765 45.9969 18.8194C46.6187 19.2003 47.3328 19.402 48.0614 19.402C49.4521 19.402 50.7166 18.6943 51.4435 17.5088C51.9951 16.6067 52.1636 15.5431 51.9171 14.5156C51.6708 13.4874 51.0374 12.6161 50.1333 12.0618C49.5111 11.681 48.7968 11.4792 48.0684 11.4792ZM29.0203 8.97917C28.6405 8.97917 28.262 9.0341 27.8949 9.14203C26.8813 9.44186 26.044 10.1188 25.5394 11.0477C25.0339 11.9768 24.9205 13.0476 25.2198 14.064C25.713 15.7345 27.2746 16.902 29.0168 16.902C29.3964 16.902 29.7751 16.847 30.142 16.7391C31.1556 16.4396 31.9926 15.7627 32.4975 14.8334C33.0037 13.9027 33.1174 12.8325 32.8176 11.819C32.3227 10.1472 30.7612 8.97917 29.0203 8.97917Z" fill="#EFEFEF"/>
<path d="M27.4251 61.9687C26.3827 61.9687 25.3619 61.5475 24.6247 60.8132C23.8861 60.0746 23.4637 59.0531 23.4637 58.0089C23.4637 56.9655 23.8861 55.9446 24.6228 55.2083C25.3603 54.4707 26.3818 54.0475 27.4251 54.0475C28.4672 54.0475 29.4886 54.4711 30.2275 55.21C30.9642 55.9467 31.3865 56.9668 31.3865 58.0089C31.3865 59.052 30.9642 60.0727 30.2275 60.8093C29.4872 61.5468 28.4665 61.9687 27.4251 61.9687Z" fill="#3E81C8"/>
<path d="M13.6747 48.5332C12.0463 48.5332 10.6024 47.5575 9.99609 46.0474C9.60206 45.0678 9.61439 43.991 10.0309 43.0163C10.4472 42.0422 11.2165 41.2888 12.1974 40.895C12.6655 40.7055 13.1626 40.6087 13.6712 40.6087C15.2991 40.6087 16.7424 41.5855 17.3484 43.097C17.7421 44.0783 17.7303 45.1546 17.3153 46.1266C16.8997 47.1003 16.1297 47.854 15.1471 48.2487C14.6763 48.4374 14.1811 48.5332 13.6747 48.5332Z" fill="#EB7830"/>
<path d="M14.3561 29.3302C13.7494 29.3302 13.1654 29.1948 12.6203 28.9279C11.6711 28.4669 10.9565 27.6607 10.6121 26.66C10.2709 25.6663 10.3331 24.602 10.7857 23.6583L10.8141 23.5948L10.8318 23.5603C11.5134 22.2324 12.8652 21.4074 14.3598 21.4074C14.9666 21.4074 15.5508 21.5429 16.0959 21.81C17.0429 22.2711 17.7565 23.0773 18.1014 24.0784C18.4462 25.0788 18.381 26.153 17.9183 27.1033C17.2493 28.4768 15.8845 29.3302 14.3561 29.3302Z" fill="#3E81C8"/>
<path d="M29.0167 16.9019C27.273 16.9019 25.7117 15.7339 25.22 14.0615C24.92 13.0474 25.0328 11.9763 25.5383 11.0474C26.0445 10.1169 26.8823 9.44009 27.8979 9.14184C28.2618 9.03426 28.6403 8.97916 29.0203 8.97916C30.7612 8.97916 32.3221 10.1464 32.8163 11.8176C33.1169 12.8337 33.004 13.9048 32.4987 14.8337C31.9943 15.7609 31.1577 16.437 30.1427 16.7382C29.7752 16.847 29.3967 16.9019 29.0167 16.9019Z" fill="#EB7830"/>
<path d="M48.0614 19.402C47.3357 19.402 46.6226 19.2011 45.9992 18.8212C44.1336 17.675 43.5473 15.2308 44.6879 13.37C45.4124 12.1863 46.6763 11.4792 48.0684 11.4792C48.7956 11.4792 49.51 11.681 50.1344 12.0627C51.0381 12.6163 51.671 13.4872 51.9172 14.5161C52.1631 15.5461 51.9951 16.6088 51.4439 17.5088C50.7143 18.6953 49.4504 19.402 48.0614 19.402Z" fill="#3E81C8"/>
<path d="M59.0776 35.1807C58.0316 35.1807 57.0094 34.7569 56.2735 34.018C55.5395 33.2866 55.1162 32.2651 55.1162 31.2193C55.1162 30.1742 55.5395 29.1534 56.2773 28.4185C57.0142 27.6815 58.0355 27.2579 59.0776 27.2579C60.1197 27.2579 61.1405 27.681 61.8782 28.4187C62.6159 29.156 63.039 30.1768 63.039 31.2193C63.039 32.2625 62.6159 33.284 61.8782 34.0217C61.1416 34.7583 60.1208 35.1807 59.0776 35.1807Z" fill="#EB7830"/>
<path d="M31.2211 54.213C30.2211 53.213 28.8372 52.639 27.4252 52.639C26.0114 52.639 24.6276 53.213 23.6293 54.2112C22.6275 55.2095 22.0553 56.5934 22.0553 58.0089C22.0553 59.4227 22.6275 60.8065 23.6293 61.8083C24.6293 62.8048 26.0114 63.377 27.4252 63.377C28.8372 63.377 30.2211 62.8048 31.2211 61.8065C32.2211 60.8065 32.7951 59.4227 32.7951 58.0089C32.7951 56.5934 32.2211 55.2095 31.2211 54.213ZM29.2316 59.8135C28.7545 60.2889 28.096 60.56 27.4252 60.56C26.7526 60.56 26.0942 60.2889 25.6188 59.8153C25.1434 59.3399 24.8723 58.6815 24.8723 58.0089C24.8723 57.3363 25.1434 56.6796 25.6188 56.2043C26.0942 55.7289 26.7526 55.456 27.4252 55.456C28.096 55.456 28.7545 55.7289 29.2316 56.206C29.7052 56.6796 29.9781 57.3363 29.9781 58.0089C29.9781 58.6815 29.7052 59.3399 29.2316 59.8135Z" fill="#231F20"/>
<path d="M18.6555 42.57C17.8333 40.5224 15.8773 39.2002 13.6712 39.2002C12.9846 39.2002 12.312 39.3305 11.6712 39.5875C8.92459 40.6932 7.58651 43.8253 8.68866 46.5737C9.51263 48.6195 11.4687 49.9417 13.6747 49.9417C14.3631 49.9417 15.0375 49.8114 15.6748 49.5544C17.0058 49.0192 18.0481 47.998 18.6115 46.6793C19.1749 45.3606 19.189 43.901 18.6555 42.57ZM16.0199 45.5736C15.7523 46.2004 15.2575 46.6863 14.6219 46.9416C14.3191 47.0631 14.0005 47.1247 13.6747 47.1247C12.6254 47.1247 11.694 46.4962 11.3032 45.5226C10.7785 44.218 11.4159 42.7267 12.7222 42.2021C13.0268 42.0788 13.3455 42.0172 13.6712 42.0172C14.7205 42.0172 15.6502 42.6457 16.041 43.6211C16.2945 44.2532 16.2875 44.9469 16.0199 45.5736Z" fill="#231F20"/>
<path d="M16.71 20.5411C15.9688 20.1802 15.1783 19.9989 14.3596 19.9989C12.2891 19.9989 10.4369 21.1538 9.5302 23.0166C9.51788 23.0395 9.50731 23.0623 9.49851 23.0852C8.8999 24.3582 8.82243 25.7878 9.28195 27.1188C9.74852 28.4745 10.7169 29.5678 12.0039 30.1946C12.7433 30.5555 13.5338 30.7386 14.3561 30.7386C16.4265 30.7386 18.277 29.5837 19.1854 27.7209C20.4813 25.0589 19.3721 21.837 16.71 20.5411ZM16.6519 26.4868C16.2206 27.3723 15.3402 27.9217 14.3561 27.9217C13.967 27.9217 13.5919 27.8354 13.2398 27.6628C12.6271 27.3653 12.1658 26.8459 11.944 26.2015C11.7222 25.5554 11.7644 24.8635 12.0637 24.2508C12.0708 24.2349 12.0778 24.2191 12.0849 24.2032C12.525 23.3458 13.393 22.8159 14.3596 22.8159C14.7487 22.8159 15.1237 22.9021 15.4758 23.0747C16.7417 23.6909 17.2681 25.2209 16.6519 26.4868Z" fill="#231F20"/>
<path d="M53.2869 14.1871C52.9524 12.7909 52.0932 11.6113 50.8696 10.8613C50.0245 10.3436 49.0561 10.0707 48.0684 10.0707C46.1828 10.0707 44.4697 11.0285 43.4855 12.6342C41.9397 15.1589 42.7355 18.4707 45.2603 20.02C46.1054 20.5376 47.0737 20.8105 48.0614 20.8105C49.9453 20.8105 51.6583 19.8527 52.6443 18.2453C53.3926 17.0217 53.6214 15.5815 53.2869 14.1871ZM50.2428 16.7734C49.7727 17.5375 48.9576 17.9935 48.0614 17.9935C47.5931 17.9935 47.1335 17.8632 46.7321 17.6185C45.5314 16.8808 45.1529 15.3068 45.8888 14.1061C46.3554 13.3437 47.1705 12.8877 48.0684 12.8877C48.5368 12.8877 48.9963 13.018 49.3995 13.2645C49.9805 13.6201 50.3889 14.1818 50.5474 14.8438C50.7058 15.5075 50.5984 16.1924 50.2428 16.7734Z" fill="#231F20"/>
<path d="M34.1684 11.4194C33.4976 9.15345 31.3813 7.57065 29.0203 7.57065C28.5062 7.57065 27.9939 7.64459 27.4974 7.79073C26.1223 8.19743 24.9867 9.11471 24.3018 10.3753C23.617 11.6342 23.4638 13.0867 23.8687 14.4617C24.5378 16.7276 26.654 18.3104 29.0168 18.3104C29.5309 18.3104 30.0432 18.2365 30.5397 18.0903C31.9165 17.6836 33.0504 16.7664 33.7352 15.5058C34.4201 14.2469 34.5751 12.7944 34.1684 11.4194ZM31.2616 14.1606C30.9359 14.7593 30.3953 15.1941 29.7422 15.3878C29.5045 15.4582 29.2597 15.4934 29.0168 15.4934C27.8953 15.4934 26.8882 14.7417 26.5713 13.6642C26.3776 13.0092 26.4498 12.319 26.7755 11.7204C27.1012 11.1218 27.6417 10.6852 28.2949 10.4933C28.5326 10.4229 28.7756 10.3876 29.0203 10.3876C30.1418 10.3876 31.1471 11.1394 31.4658 12.2169C31.6595 12.8719 31.5873 13.562 31.2616 14.1606Z" fill="#231F20"/>
<path d="M62.8735 27.4217C61.8717 26.4234 60.4878 25.8494 59.0776 25.8494C57.6656 25.8494 56.2817 26.4234 55.2799 27.4234C54.2799 28.4217 53.7077 29.8073 53.7077 31.2193C53.7077 32.6366 54.2799 34.0205 55.2799 35.017C56.28 36.017 57.6638 36.5892 59.0776 36.5892C60.4896 36.5892 61.8752 36.017 62.8735 35.017C63.8735 34.0187 64.4475 32.6331 64.4475 31.2193C64.4475 29.8073 63.8735 28.4217 62.8735 27.4217ZM60.8822 33.0257C60.4069 33.5011 59.7484 33.7722 59.0776 33.7722C58.405 33.7722 57.7466 33.5011 57.2712 33.0239C56.7958 32.5503 56.5247 31.8936 56.5247 31.2193C56.5247 30.5485 56.7958 29.89 57.2712 29.4164C57.7483 28.9393 58.4068 28.6664 59.0776 28.6664C59.7484 28.6664 60.4069 28.9393 60.8822 29.4147C61.3576 29.89 61.6305 30.5485 61.6305 31.2193C61.6305 31.8919 61.3576 32.5503 60.8822 33.0257Z" fill="#231F20"/>
<path d="M35.7265 0C26.1822 0.00528186 17.2101 3.72371 10.4634 10.4739C3.71667 17.2241 0 26.198 0 35.7406C0 55.4489 16.034 71.4811 35.7406 71.4811H35.7775C35.7775 71.4811 35.7775 71.4811 35.7793 71.4811C37.0241 71.4811 38.1808 70.916 38.9502 69.93C39.7213 68.9423 39.9925 67.68 39.6932 66.4669C39.3269 64.9845 39.1421 63.4527 39.1438 61.9122C39.1509 57.9138 40.4273 54.1989 42.5841 51.1478L57.0934 65.657C58.2184 66.7803 59.6938 67.3419 61.171 67.3419C62.6481 67.3419 64.1235 66.7803 65.2485 65.657L65.3102 65.5936C66.4 64.5056 66.9986 63.0566 66.9986 61.5178C66.9986 59.9773 66.4 58.5283 65.3102 57.4402L52.0034 44.1317C53.8309 43.5207 55.7817 43.1845 57.8064 43.1721H57.9191C60.5107 43.1721 63.0214 43.6898 65.3788 44.7127C65.8947 44.9345 66.437 45.049 66.9916 45.049C68.9811 45.049 70.6642 43.6211 70.9934 41.6527C71.3209 39.6879 71.4847 37.6755 71.4811 35.6719C71.4442 16.0023 55.4102 0 35.7265 0ZM63.3189 59.4315C63.8753 59.9878 64.1816 60.729 64.1816 61.5178C64.1816 62.3048 63.8753 63.046 63.3189 63.6024L63.2555 63.664C62.1058 64.8137 60.2361 64.8137 59.0864 63.664L39.3023 43.8817C40.2301 43.4644 41.084 42.8816 41.8094 42.1545C42.5348 41.4291 43.1176 40.577 43.5348 39.6491L63.3189 59.4315ZM36.4536 41.7795C36.2476 41.8006 36.0381 41.8129 35.8304 41.8129C34.3268 41.8129 32.913 41.2267 31.8496 40.1632C30.346 38.6597 29.4499 33.3461 29.1277 29.4728C32.9993 29.795 38.3128 30.6911 39.8182 32.1964C41.033 33.4113 41.621 35.0891 41.4327 36.7987C41.2918 38.0857 40.7319 39.2477 39.8182 40.1632C38.9026 41.0788 37.7389 41.6369 36.4536 41.7795ZM68.2152 41.1897C68.1008 41.8728 67.5127 42.232 66.9916 42.232C66.8243 42.232 66.6588 42.1968 66.5003 42.1281C63.7872 40.9502 60.8998 40.3552 57.9191 40.3552H57.7906C54.9736 40.371 52.2816 40.9362 49.8132 41.9432L44.2778 36.4078C44.343 34.0891 43.4662 31.8602 41.8094 30.2034C38.76 27.154 28.8072 26.6082 27.6822 26.5554C27.2861 26.5378 26.9005 26.6875 26.6206 26.9674C26.3406 27.2473 26.191 27.6329 26.2103 28.0291C26.2632 29.1523 26.8089 39.1069 29.8583 42.1545C31.4535 43.7514 33.575 44.6299 35.8304 44.6299C35.9078 44.6299 35.9835 44.6264 36.061 44.6229L40.5682 49.1318C37.9132 52.7129 36.3357 57.1339 36.3269 61.9069C36.3251 63.6781 36.5364 65.4387 36.9572 67.143C37.0487 67.5109 36.966 67.8948 36.73 68.1958C36.4976 68.4934 36.149 68.6642 35.7758 68.6642H35.7406C17.5868 68.6642 2.81699 53.8961 2.81699 35.7406C2.81699 17.5939 17.5798 2.82579 35.7406 2.81699C53.8591 2.81699 68.6289 17.5587 68.6641 35.6772C68.6677 37.5241 68.5163 39.3798 68.2152 41.1897Z" fill="#231F20"/>
</g>
<defs>
<clipPath id="clip0_8_146">
<rect width="71.4811" height="71.4811" fill="white"/>
</clipPath>
</defs>
</svg>
