<svg width="83" height="83" viewBox="0 0 83 83" fill="none" xmlns="http://www.w3.org/2000/svg">
<g clip-path="url(#clip0_9_219)">
<path d="M41.3761 25.566C46.795 25.566 51.2677 25.9259 52.0327 26.3883C52.11 26.2457 52.1606 26.0991 52.1606 25.9485C52.1606 24.2879 47.3321 22.9392 41.3761 22.9392C35.42 22.9392 30.5942 24.2879 30.5942 25.9485C30.5942 26.0991 30.6435 26.2457 30.7208 26.3883C31.4818 25.9259 35.9571 25.566 41.3761 25.566Z" fill="#0D5F68"/>
<path d="M57.9021 4.84851C57.9021 16.0236 41.9558 25.0796 41.3774 25.0796C40.799 25.0796 24.85 16.0236 24.85 4.84851C24.85 -6.32654 31.3565 5.31497 41.3774 5.31497C51.3956 5.31497 57.9021 -6.3252 57.9021 4.84851Z" fill="#DAA98F"/>
<path d="M75.9994 78.4812L41.3774 81.316L6.75537 78.4812L41.3774 5.03909L75.9994 78.4812Z" fill="#BE7D50"/>
<path d="M50.588 30.6624H32.1641L28.9855 9.33853H53.7666L50.588 30.6624Z" fill="#DAA98F"/>
<path d="M12.9247 80.5403C16.3252 80.5403 19.0819 79.7139 19.0819 78.6945C19.0819 77.6751 16.3252 76.8486 12.9247 76.8486C9.5241 76.8486 6.7674 77.6751 6.7674 78.6945C6.7674 79.7139 9.5241 80.5403 12.9247 80.5403Z" fill="#BE7D50"/>
<path d="M22.4231 81.236C25.8229 81.236 28.579 80.4084 28.579 79.3875C28.579 78.3666 25.8229 77.539 22.4231 77.539C19.0233 77.539 16.2672 78.3666 16.2672 79.3875C16.2672 80.4084 19.0233 81.236 22.4231 81.236Z" fill="#BE7D50"/>
<path d="M31.9216 81.9424C35.3214 81.9424 38.0775 81.1148 38.0775 80.0938C38.0775 79.0729 35.3214 78.2453 31.9216 78.2453C28.5217 78.2453 25.7656 79.0729 25.7656 80.0938C25.7656 81.1148 28.5217 81.9424 31.9216 81.9424Z" fill="#BE7D50"/>
<path d="M69.8315 80.5403C73.232 80.5403 75.9887 79.7139 75.9887 78.6945C75.9887 77.6751 73.232 76.8486 69.8315 76.8486C66.4309 76.8486 63.6742 77.6751 63.6742 78.6945C63.6742 79.7139 66.4309 80.5403 69.8315 80.5403Z" fill="#BE7D50"/>
<path d="M54.173 79.3942C54.173 80.415 56.9291 81.2427 60.3316 81.2427C63.7288 81.2427 66.4876 80.415 66.4876 79.3942C66.4876 78.3733 63.7288 77.5457 60.3316 77.5457C56.9291 77.547 54.173 78.3746 54.173 79.3942Z" fill="#BE7D50"/>
<path d="M50.8265 81.9424C54.2271 81.9424 56.9838 81.1148 56.9838 80.0938C56.9838 79.0729 54.2271 78.2453 50.8265 78.2453C47.426 78.2453 44.6693 79.0729 44.6693 80.0938C44.6693 81.1148 47.426 81.9424 50.8265 81.9424Z" fill="#BE7D50"/>
<path d="M41.3774 82.6487C44.7779 82.6487 47.5346 81.8211 47.5346 80.8002C47.5346 79.7793 44.7779 78.9517 41.3774 78.9517C37.9768 78.9517 35.2201 79.7793 35.2201 80.8002C35.2201 81.8211 37.9768 82.6487 41.3774 82.6487Z" fill="#BE7D50"/>
<path d="M68.7652 78.6479L49.1726 28.2142L50.3361 16.2715C52.6231 13.1449 57.1397 12.0507 57.1397 7.96982C57.1397 -2.75743 49.3019 5.88807 41.3774 5.88807C33.4502 5.88807 25.6124 -2.7561 25.6124 7.96982C25.6124 12.0507 30.129 13.1422 32.4187 16.2701L33.5795 28.2169L13.9895 78.6479L14.0521 78.6559C14.0308 78.7212 13.9975 78.7838 13.9975 78.8491C13.9975 79.83 16.1792 80.6243 18.8673 80.6243C20.0242 80.6243 21.0717 80.4711 21.9073 80.2258C22.655 80.8562 24.3756 81.2987 26.3813 81.2987C27.5395 81.2987 28.5884 81.1481 29.424 80.9029C30.169 81.5332 31.8896 81.9757 33.8954 81.9757C35.0402 81.9757 36.0797 81.8251 36.9127 81.5826C37.6617 82.213 39.3769 82.6501 41.376 82.6501C43.3738 82.6501 45.0891 82.213 45.8394 81.5826C46.6724 81.8251 47.7106 81.9757 48.8554 81.9757C50.8638 81.9757 52.5817 81.5332 53.3281 80.9029C54.1637 81.1481 55.2126 81.2987 56.3681 81.2987C58.3778 81.2987 60.0984 80.8562 60.8421 80.2258C61.6777 80.4711 62.7266 80.6243 63.8821 80.6243C66.5716 80.6243 68.7519 79.83 68.7519 78.8491C68.7519 78.7838 68.7186 78.7212 68.6986 78.6559L68.7652 78.6479Z" fill="#DAA98F"/>
<path d="M30.5942 25.9592C30.5942 27.6198 35.4227 31.2688 41.3787 31.2688C47.3348 31.2688 52.1606 27.6198 52.1606 25.9592" fill="#684E9B"/>
<path d="M21.9087 80.2245C22.6564 80.8549 24.3769 81.2973 26.3827 81.2973C27.5409 81.2973 28.5897 81.1467 29.4254 80.9015C30.1704 81.5319 31.8909 81.9744 33.8967 81.9744C35.0415 81.9744 36.0811 81.8238 36.914 81.5812C37.663 82.2116 39.3783 82.6487 41.3774 82.6487C43.3752 82.6487 45.0904 82.2116 45.8408 81.5812C46.6737 81.8238 47.7119 81.9744 48.8568 81.9744C50.8652 81.9744 52.5831 81.5319 53.3294 80.9015C54.1651 81.1467 55.2139 81.2973 56.3694 81.2973C58.3792 81.2973 60.0998 80.8549 60.8434 80.2245C61.6791 80.4697 62.7279 80.623 63.8834 80.623C66.5729 80.623 68.7533 79.8287 68.7533 78.8478C68.7533 78.7824 68.72 78.7198 68.7 78.6545L68.7639 78.6465L45.1344 28.2128L50.2721 15.5544C47.5493 16.2595 44.5427 12.6517 41.3747 12.6517C38.2068 12.6517 35.2015 16.2595 32.4773 15.5571L37.6151 28.2155" fill="#DFD0C1"/>
<path d="M41.7452 13.2181C41.2801 14.5402 36.8514 18.2786 33.4289 17.0764C30.0091 15.8743 27.5848 8.71347 28.054 7.38739C28.5164 6.06531 32.9731 7.4367 36.3956 8.6415C39.8167 9.84363 42.2143 11.8934 41.7452 13.2181Z" fill="#DAA98F"/>
<path d="M41.0069 13.2181C41.4707 14.5402 45.9008 18.2786 49.3206 17.0764C52.7431 15.8743 55.1673 8.71347 54.7009 7.38739C54.2357 6.06531 49.779 7.4367 46.3552 8.6415C42.9354 9.84363 40.5405 11.8934 41.0069 13.2181Z" fill="#DAA98F"/>
<path d="M41.3787 26.3417C35.9598 26.3417 31.4844 25.9818 30.7208 25.5194C30.6435 25.662 30.5942 25.8086 30.5942 25.9592C30.5942 27.6198 35.4227 28.9685 41.3787 28.9685C47.3348 28.9685 52.1606 27.6198 52.1606 25.9592C52.1606 25.8086 52.11 25.662 52.0327 25.5194C51.2704 25.9832 46.7977 26.3417 41.3787 26.3417Z" fill="#28C5C9"/>
<path d="M52.1606 25.9592C52.1606 25.8086 52.11 25.662 52.0327 25.5194C51.2704 25.9832 46.7977 26.3417 41.3787 26.3417C35.9598 26.3417 31.4844 25.9818 30.7208 25.5194C30.6435 25.662 30.5942 25.8086 30.5942 25.9592" fill="#684E9B"/>
<path d="M41.3787 27.0054C35.8532 27.0054 31.3072 26.9974 30.6755 25.6753C30.6422 25.7659 30.5942 25.8605 30.5942 25.9592C30.5942 27.6198 35.4227 28.9685 41.3787 28.9685C47.3348 28.9685 52.1606 27.6198 52.1606 25.9592C52.1606 25.8605 52.114 25.7659 52.078 25.6753C51.4476 26.9974 46.903 27.0054 41.3787 27.0054Z" fill="#18ACB7"/>
<path d="M39.5928 26.1471C40.5777 25.1635 42.1757 25.1635 43.1593 26.1471C44.1455 27.1333 44.1455 28.7313 43.1619 29.7188" fill="#F29E25"/>
<path d="M34.4591 16.7459C34.6682 16.7459 34.8376 16.5765 34.8376 16.3674C34.8376 16.1584 34.6682 15.9889 34.4591 15.9889C34.2501 15.9889 34.0806 16.1584 34.0806 16.3674C34.0806 16.5765 34.2501 16.7459 34.4591 16.7459Z" fill="#9574C1"/>
<path d="M36.4329 16.7446C36.6412 16.7446 36.8101 16.5757 36.8101 16.3674C36.8101 16.1591 36.6412 15.9903 36.4329 15.9903C36.2246 15.9903 36.0557 16.1591 36.0557 16.3674C36.0557 16.5757 36.2246 16.7446 36.4329 16.7446Z" fill="#9574C1"/>
<path d="M38.4121 16.7459C38.6211 16.7459 38.7906 16.5765 38.7906 16.3674C38.7906 16.1584 38.6211 15.9889 38.4121 15.9889C38.203 15.9889 38.0336 16.1584 38.0336 16.3674C38.0336 16.5765 38.203 16.7459 38.4121 16.7459Z" fill="#9574C1"/>
<path d="M40.3912 16.7459C40.6002 16.7459 40.7697 16.5765 40.7697 16.3674C40.7697 16.1584 40.6002 15.9889 40.3912 15.9889C40.1822 15.9889 40.0127 16.1584 40.0127 16.3674C40.0127 16.5765 40.1822 16.7459 40.3912 16.7459Z" fill="#9574C1"/>
<path d="M42.365 16.7446C42.5733 16.7446 42.7421 16.5757 42.7421 16.3674C42.7421 16.1591 42.5733 15.9903 42.365 15.9903C42.1567 15.9903 41.9878 16.1591 41.9878 16.3674C41.9878 16.5757 42.1567 16.7446 42.365 16.7446Z" fill="#9574C1"/>
<path d="M44.3494 16.7459C44.5584 16.7459 44.7279 16.5765 44.7279 16.3674C44.7279 16.1584 44.5584 15.9889 44.3494 15.9889C44.1403 15.9889 43.9709 16.1584 43.9709 16.3674C43.9709 16.5765 44.1403 16.7459 44.3494 16.7459Z" fill="#9574C1"/>
<path d="M46.3179 16.7459C46.5269 16.7459 46.6964 16.5765 46.6964 16.3674C46.6964 16.1584 46.5269 15.9889 46.3179 15.9889C46.1089 15.9889 45.9394 16.1584 45.9394 16.3674C45.9394 16.5765 46.1089 16.7459 46.3179 16.7459Z" fill="#9574C1"/>
<path d="M48.2943 16.7459C48.5034 16.7459 48.6728 16.5765 48.6728 16.3674C48.6728 16.1584 48.5034 15.9889 48.2943 15.9889C48.0853 15.9889 47.9158 16.1584 47.9158 16.3674C47.9158 16.5765 48.0853 16.7459 48.2943 16.7459Z" fill="#9574C1"/>
<path d="M34.4591 18.9743C34.6682 18.9743 34.8376 18.8048 34.8376 18.5958C34.8376 18.3867 34.6682 18.2173 34.4591 18.2173C34.2501 18.2173 34.0806 18.3867 34.0806 18.5958C34.0806 18.8048 34.2501 18.9743 34.4591 18.9743Z" fill="#9574C1"/>
<path d="M36.4329 18.9729C36.6412 18.9729 36.8101 18.8041 36.8101 18.5958C36.8101 18.3875 36.6412 18.2186 36.4329 18.2186C36.2246 18.2186 36.0557 18.3875 36.0557 18.5958C36.0557 18.8041 36.2246 18.9729 36.4329 18.9729Z" fill="#9574C1"/>
<path d="M38.4121 18.9743C38.6211 18.9743 38.7906 18.8048 38.7906 18.5958C38.7906 18.3867 38.6211 18.2173 38.4121 18.2173C38.203 18.2173 38.0336 18.3867 38.0336 18.5958C38.0336 18.8048 38.203 18.9743 38.4121 18.9743Z" fill="#9574C1"/>
<path d="M40.3912 18.9743C40.6002 18.9743 40.7697 18.8048 40.7697 18.5958C40.7697 18.3867 40.6002 18.2173 40.3912 18.2173C40.1822 18.2173 40.0127 18.3867 40.0127 18.5958C40.0127 18.8048 40.1822 18.9743 40.3912 18.9743Z" fill="#9574C1"/>
<path d="M42.365 18.9729C42.5733 18.9729 42.7421 18.8041 42.7421 18.5958C42.7421 18.3875 42.5733 18.2186 42.365 18.2186C42.1567 18.2186 41.9878 18.3875 41.9878 18.5958C41.9878 18.8041 42.1567 18.9729 42.365 18.9729Z" fill="#9574C1"/>
<path d="M44.3494 18.9743C44.5584 18.9743 44.7279 18.8048 44.7279 18.5958C44.7279 18.3867 44.5584 18.2173 44.3494 18.2173C44.1403 18.2173 43.9709 18.3867 43.9709 18.5958C43.9709 18.8048 44.1403 18.9743 44.3494 18.9743Z" fill="#9574C1"/>
<path d="M46.3179 18.9743C46.5269 18.9743 46.6964 18.8048 46.6964 18.5958C46.6964 18.3867 46.5269 18.2173 46.3179 18.2173C46.1089 18.2173 45.9394 18.3867 45.9394 18.5958C45.9394 18.8048 46.1089 18.9743 46.3179 18.9743Z" fill="#9574C1"/>
<path d="M48.2943 18.9743C48.5034 18.9743 48.6728 18.8048 48.6728 18.5958C48.6728 18.3867 48.5034 18.2173 48.2943 18.2173C48.0853 18.2173 47.9158 18.3867 47.9158 18.5958C47.9158 18.8048 48.0853 18.9743 48.2943 18.9743Z" fill="#9574C1"/>
<path d="M34.4591 21.2053C34.6682 21.2053 34.8376 21.0358 34.8376 20.8268C34.8376 20.6177 34.6682 20.4483 34.4591 20.4483C34.2501 20.4483 34.0806 20.6177 34.0806 20.8268C34.0806 21.0358 34.2501 21.2053 34.4591 21.2053Z" fill="#9574C1"/>
<path d="M36.4329 21.2039C36.6412 21.2039 36.8101 21.0351 36.8101 20.8268C36.8101 20.6185 36.6412 20.4496 36.4329 20.4496C36.2246 20.4496 36.0557 20.6185 36.0557 20.8268C36.0557 21.0351 36.2246 21.2039 36.4329 21.2039Z" fill="#9574C1"/>
<path d="M38.4121 21.2053C38.6211 21.2053 38.7906 21.0358 38.7906 20.8268C38.7906 20.6177 38.6211 20.4483 38.4121 20.4483C38.203 20.4483 38.0336 20.6177 38.0336 20.8268C38.0336 21.0358 38.203 21.2053 38.4121 21.2053Z" fill="#9574C1"/>
<path d="M40.3912 21.2053C40.6002 21.2053 40.7697 21.0358 40.7697 20.8268C40.7697 20.6177 40.6002 20.4483 40.3912 20.4483C40.1822 20.4483 40.0127 20.6177 40.0127 20.8268C40.0127 21.0358 40.1822 21.2053 40.3912 21.2053Z" fill="#9574C1"/>
<path d="M42.365 21.2039C42.5733 21.2039 42.7421 21.0351 42.7421 20.8268C42.7421 20.6185 42.5733 20.4496 42.365 20.4496C42.1567 20.4496 41.9878 20.6185 41.9878 20.8268C41.9878 21.0351 42.1567 21.2039 42.365 21.2039Z" fill="#9574C1"/>
<path d="M44.3494 21.2053C44.5584 21.2053 44.7279 21.0358 44.7279 20.8268C44.7279 20.6177 44.5584 20.4483 44.3494 20.4483C44.1403 20.4483 43.9709 20.6177 43.9709 20.8268C43.9709 21.0358 44.1403 21.2053 44.3494 21.2053Z" fill="#9574C1"/>
<path d="M46.3179 21.2053C46.5269 21.2053 46.6964 21.0358 46.6964 20.8268C46.6964 20.6177 46.5269 20.4483 46.3179 20.4483C46.1089 20.4483 45.9394 20.6177 45.9394 20.8268C45.9394 21.0358 46.1089 21.2053 46.3179 21.2053Z" fill="#9574C1"/>
<path d="M48.2943 21.2053C48.5034 21.2053 48.6728 21.0358 48.6728 20.8268C48.6728 20.6177 48.5034 20.4483 48.2943 20.4483C48.0853 20.4483 47.9158 20.6177 47.9158 20.8268C47.9158 21.0358 48.0853 21.2053 48.2943 21.2053Z" fill="#9574C1"/>
<path d="M34.4591 23.4336C34.6682 23.4336 34.8376 23.2642 34.8376 23.0551C34.8376 22.8461 34.6682 22.6766 34.4591 22.6766C34.2501 22.6766 34.0806 22.8461 34.0806 23.0551C34.0806 23.2642 34.2501 23.4336 34.4591 23.4336Z" fill="#9574C1"/>
<path d="M36.4329 23.4323C36.6412 23.4323 36.8101 23.2634 36.8101 23.0551C36.8101 22.8468 36.6412 22.6779 36.4329 22.6779C36.2246 22.6779 36.0557 22.8468 36.0557 23.0551C36.0557 23.2634 36.2246 23.4323 36.4329 23.4323Z" fill="#9574C1"/>
<path d="M38.4121 23.4336C38.6211 23.4336 38.7906 23.2642 38.7906 23.0551C38.7906 22.8461 38.6211 22.6766 38.4121 22.6766C38.203 22.6766 38.0336 22.8461 38.0336 23.0551C38.0336 23.2642 38.203 23.4336 38.4121 23.4336Z" fill="#9574C1"/>
<path d="M40.3912 23.4336C40.6002 23.4336 40.7697 23.2642 40.7697 23.0551C40.7697 22.8461 40.6002 22.6766 40.3912 22.6766C40.1822 22.6766 40.0127 22.8461 40.0127 23.0551C40.0127 23.2642 40.1822 23.4336 40.3912 23.4336Z" fill="#9574C1"/>
<path d="M42.365 23.4323C42.5733 23.4323 42.7421 23.2634 42.7421 23.0551C42.7421 22.8468 42.5733 22.6779 42.365 22.6779C42.1567 22.6779 41.9878 22.8468 41.9878 23.0551C41.9878 23.2634 42.1567 23.4323 42.365 23.4323Z" fill="#9574C1"/>
<path d="M44.3494 23.4336C44.5584 23.4336 44.7279 23.2642 44.7279 23.0551C44.7279 22.8461 44.5584 22.6766 44.3494 22.6766C44.1403 22.6766 43.9709 22.8461 43.9709 23.0551C43.9709 23.2642 44.1403 23.4336 44.3494 23.4336Z" fill="#9574C1"/>
<path d="M46.3179 23.4336C46.5269 23.4336 46.6964 23.2642 46.6964 23.0551C46.6964 22.8461 46.5269 22.6766 46.3179 22.6766C46.1089 22.6766 45.9394 22.8461 45.9394 23.0551C45.9394 23.2642 46.1089 23.4336 46.3179 23.4336Z" fill="#9574C1"/>
<path d="M48.2943 23.4336C48.5034 23.4336 48.6728 23.2642 48.6728 23.0551C48.6728 22.8461 48.5034 22.6766 48.2943 22.6766C48.0853 22.6766 47.9158 22.8461 47.9158 23.0551C47.9158 23.2642 48.0853 23.4336 48.2943 23.4336Z" fill="#9574C1"/>
<path d="M34.4591 25.6606C34.6682 25.6606 34.8376 25.4912 34.8376 25.2821C34.8376 25.0731 34.6682 24.9036 34.4591 24.9036C34.2501 24.9036 34.0806 25.0731 34.0806 25.2821C34.0806 25.4912 34.2501 25.6606 34.4591 25.6606Z" fill="#9574C1"/>
<path d="M36.4329 25.6593C36.6412 25.6593 36.8101 25.4904 36.8101 25.2821C36.8101 25.0738 36.6412 24.905 36.4329 24.905C36.2246 24.905 36.0557 25.0738 36.0557 25.2821C36.0557 25.4904 36.2246 25.6593 36.4329 25.6593Z" fill="#9574C1"/>
<path d="M38.4121 25.6606C38.6211 25.6606 38.7906 25.4912 38.7906 25.2821C38.7906 25.0731 38.6211 24.9036 38.4121 24.9036C38.203 24.9036 38.0336 25.0731 38.0336 25.2821C38.0336 25.4912 38.203 25.6606 38.4121 25.6606Z" fill="#9574C1"/>
<path d="M40.3912 25.6606C40.6002 25.6606 40.7697 25.4912 40.7697 25.2821C40.7697 25.0731 40.6002 24.9036 40.3912 24.9036C40.1822 24.9036 40.0127 25.0731 40.0127 25.2821C40.0127 25.4912 40.1822 25.6606 40.3912 25.6606Z" fill="#9574C1"/>
<path d="M42.365 25.6593C42.5733 25.6593 42.7421 25.4904 42.7421 25.2821C42.7421 25.0738 42.5733 24.905 42.365 24.905C42.1567 24.905 41.9878 25.0738 41.9878 25.2821C41.9878 25.4904 42.1567 25.6593 42.365 25.6593Z" fill="#9574C1"/>
<path d="M44.3494 25.6606C44.5584 25.6606 44.7279 25.4912 44.7279 25.2821C44.7279 25.0731 44.5584 24.9036 44.3494 24.9036C44.1403 24.9036 43.9709 25.0731 43.9709 25.2821C43.9709 25.4912 44.1403 25.6606 44.3494 25.6606Z" fill="#9574C1"/>
<path d="M46.3179 25.6606C46.5269 25.6606 46.6964 25.4912 46.6964 25.2821C46.6964 25.0731 46.5269 24.9036 46.3179 24.9036C46.1089 24.9036 45.9394 25.0731 45.9394 25.2821C45.9394 25.4912 46.1089 25.6606 46.3179 25.6606Z" fill="#9574C1"/>
<path d="M48.2943 25.6606C48.5034 25.6606 48.6728 25.4912 48.6728 25.2821C48.6728 25.0731 48.5034 24.9036 48.2943 24.9036C48.0853 24.9036 47.9158 25.0731 47.9158 25.2821C47.9158 25.4912 48.0853 25.6606 48.2943 25.6606Z" fill="#9574C1"/>
<path d="M41.3774 30.4572C42.7715 30.4572 43.9016 29.3271 43.9016 27.933C43.9016 26.5389 42.7715 25.4088 41.3774 25.4088C39.9833 25.4088 38.8532 26.5389 38.8532 27.933C38.8532 29.3271 39.9833 30.4572 41.3774 30.4572Z" fill="#F4B822"/>
</g>
<defs>
<clipPath id="clip0_9_219">
<rect width="82.6501" height="82.6501" fill="white" transform="translate(0.0523682)"/>
</clipPath>
</defs>
</svg>
