<svg width="66" height="61" viewBox="0 0 66 61" fill="none" xmlns="http://www.w3.org/2000/svg">
<path d="M33.4217 13.2274C31.829 14.4046 28.7683 14.2347 26.4948 14.1797L27.0247 18.2642C30.9208 19.7858 35.1192 19.4234 39.22 18.592L39.8045 14.0885C38.1009 12.9654 34.8402 14.7562 33.4217 13.2274Z" fill="#A74927"/>
<path d="M44.001 4.62352C43.3338 3.80216 44.001 2.51846 44.001 1.38855C44.001 0.258459 42.8675 0.772017 42.734 0.361624C42.5993 -0.0493364 40.9994 0.00205726 40.9994 0.00205726C40.8647 0.669419 36.8643 4.16173 35.3983 5.23948C33.9305 6.31762 33.9977 7.39688 33.9977 7.39688C33.9977 7.39688 33.1776 8.32934 33.1449 9.93237C33.1118 8.32934 32.2921 7.39688 32.2921 7.39688C32.2921 7.39688 32.3589 6.31856 30.8926 5.23948C29.4243 4.16173 25.4232 0.669419 25.2904 0.00205726C25.2904 0.00205726 23.6901 -0.0491474 23.5558 0.361624C23.4231 0.772017 22.2881 0.259403 22.2881 1.38855C22.2881 2.51846 22.9561 3.80216 22.2881 4.62352C21.6211 5.44487 23.0888 6.52319 22.9561 7.6531C22.8309 8.71517 24.6511 12.954 26.1437 13.542C28.3781 13.6002 31.9319 13.8908 33.1486 12.5563C33.3594 12.3248 33.7471 12.3777 33.8804 12.6296C34.5045 13.8179 37.4717 13.087 38.7144 13.1316C39.2924 13.1516 39.7653 13.2979 40.1744 13.5312C41.6623 12.9051 43.4606 8.70912 43.3362 7.6531C43.2017 6.523 44.6678 5.44487 44.001 4.62352Z" fill="#A74927"/>
<path d="M62.9426 47.5019C63.0088 47.2457 64.6087 47.3475 64.6087 46.6293C64.6087 45.9111 65.6099 45.4484 65.4752 45.0883C65.3429 44.7283 62.7416 41.0318 61.4748 40.0564C60.2065 39.08 55.8049 34.5101 54.9379 32.8662C54.0713 31.2235 50.2692 27.6798 46.6666 23.9315C43.9853 21.1402 41.1592 19.5752 39.8885 18.9575C39.8477 18.9834 39.7969 19.0045 39.7346 19.0176C35.3938 19.902 30.9468 20.2797 26.8188 18.7599C25.8936 19.1746 22.6653 20.7616 19.6193 23.9325C16.0174 27.6815 12.2165 31.2243 11.3485 32.8672C10.482 34.5108 6.07938 39.0811 4.81258 40.0574C3.54481 41.0329 0.943727 44.7293 0.810962 45.0894C0.676969 45.4494 1.67774 45.9113 1.67774 46.6303C1.67774 47.3492 3.27805 47.2466 3.34431 47.503C3.41081 47.7592 3.1443 48.7348 4.47785 48.8383L3.54505 50.4283C3.54505 50.4283 3.41229 51.1982 4.07808 51.0955C4.74583 50.9917 2.94527 52.3274 5.54635 52.071C8.14767 51.8146 6.94616 53.2009 8.28093 53.3545L7.21414 54.741C7.21414 54.741 8.01491 55.5629 8.88144 55.3063C8.88144 55.3063 8.21369 56.3847 8.61469 56.8474C9.01568 57.3101 9.54871 56.5392 10.0145 56.1802C10.4822 55.8201 10.0145 57.0528 11.615 56.6938L12.1488 56.0774C12.1488 56.0774 13.2156 57.4433 14.4171 56.9912L14.3506 57.8239C14.3506 57.8239 15.4841 57.8747 15.7509 57.8239L15.6181 58.7484L16.8857 58.4922C16.8857 58.4922 16.6189 59.3649 17.5529 59.4169C17.5529 59.4169 17.0199 59.9316 17.2867 59.9316C17.5529 59.9316 19.954 60.4453 21.2875 59.6742L21.1548 59.1098L22.0895 59.1608L22.2895 59.6744C22.2895 59.6744 22.7566 59.521 23.6233 59.2128C24.4901 58.9044 24.0229 60.1001 24.0229 60.1001C24.0229 60.1001 24.9576 59.7027 25.6234 60.1001C26.2912 60.4963 27.4247 59.8055 28.4252 60.1001C28.4252 60.1001 29.825 60.0345 29.959 59.7781V59.111C29.959 59.111 30.693 59.7275 31.3596 59.3165V58.8028C31.3596 58.8028 31.8393 58.8459 32.3837 58.8878C32.3876 58.9281 32.3925 58.9553 32.3976 58.9562C32.4848 58.974 32.7827 58.9621 33.1464 58.9407C33.5096 58.9621 33.8083 58.973 33.8949 58.9562C33.9 58.9553 33.9049 58.9281 33.9089 58.8878C34.4527 58.8457 34.9332 58.8028 34.9332 58.8028V59.3165C35.6002 59.7275 36.3335 59.111 36.3335 59.111V59.7781C36.4658 60.0345 37.8673 60.1001 37.8673 60.1001C38.8686 59.8055 40.0021 60.4963 40.6694 60.1001C41.3366 59.7027 42.2694 60.1001 42.2694 60.1001C42.2694 60.1001 41.8031 58.9044 42.6709 59.2128C43.5389 59.5219 44.004 59.6744 44.004 59.6744L44.2047 59.1608L45.1387 59.1098L45.0055 59.6742C46.3385 60.4453 48.7401 59.9316 49.0071 59.9316C49.2739 59.9316 48.7401 59.4169 48.7401 59.4169C49.6744 59.3659 49.4074 58.4922 49.4074 58.4922L50.6744 58.7484L50.5421 57.8239C50.8091 57.8747 51.9424 57.8239 51.9424 57.8239L51.8764 56.9912C53.0772 57.4433 54.1432 56.0774 54.1432 56.0774L54.677 56.6938C56.278 57.0539 55.8105 55.8212 56.278 56.1802C56.7443 56.5392 57.2781 57.3101 57.6783 56.8474C58.0774 56.3847 57.4116 55.3063 57.4116 55.3063C58.2781 55.5627 59.0774 54.741 59.0774 54.741L58.0114 53.3545C59.3444 53.1999 58.1446 51.8136 60.7459 52.071C63.3473 52.3272 61.5467 50.9938 62.2137 51.0955C62.8822 51.1982 62.7475 50.4283 62.7475 50.4283L61.8132 48.8364C63.1423 48.7338 62.8753 47.7583 62.9426 47.5019Z" fill="#A74927"/>
</svg>
